Format                                   : MPEG-4
Format profile                           : Base Media / Version 2
Codec ID                                 : mp42
File size                                : 1.37 GiB
Duration                                 : 2h 38mn
Overall bit rate mode                    : Variable
Overall bit rate                         : 1 237 Kbps

Video
ID                                       : 2
Format                                   : AVC
Format/Info                              : Advanced Video Codec
Format profile                           : High@L3.1
Format settings, CABAC                   : Yes
Format settings, ReFrames                : 3 frames
Codec ID                                 : avc1
Codec ID/Info                            : Advanced Video Coding
Duration                                 : 2h 38mn
Bit rate mode                            : Variable
Bit rate                                 : 1 169 Kbps
Maximum bit rate                         : 8 000 Kbps
Width                                    : 720 pixels
Height                                   : 540 pixels
Display aspect ratio                     : 4:3
Frame rate mode                          : Constant
Frame rate                               : 29.970 fps
Standard                                 : NTSC
Color space                              : YUV
Chroma subsampling                       : 4:2:0
Bit depth                                : 8 bits
Scan type                                : Progressive
Bits/(Pixel*Frame)                       : 0.100
Stream size                              : 1.29 GiB (95%)
Writing library                          : x264 core 112

Audio
ID                                       : 1
Format                                   : AAC
Format/Info                              : Advanced Audio Codec
Format profile                           : LC
Codec ID                                 : 40
Duration                                 : 2h 38mn
Bit rate mode                            : Variable
Bit rate                                 : 63.9 Kbps
Maximum bit rate                         : 576 Kbps
Channel(s)                               : 2 channels
Channel positions                        : Front: L R
Sampling rate                            : 48.0 KHz
Compression mode                         : Lossy
Delay relative to video                  : 33ms
Stream size                              : 72.5 MiB (5%)
Langauge                                 : English
Subtitles                                : None

Covers.  http://bayimg.com/nANmAaaEF

         http://bayimg.com/nANMcaAEF

Screens.  http://bayimg.com/nanMdAaeF

Enjoy.